# Blender 4.0.2
# www.blender.org
mtllib link_11.mtl
o joint_10
v -0.000903 0.000000 -0.000903
v -0.000761 0.000000 -0.001328
v -0.000869 -0.000447 0.000507
v -0.000961 -0.000312 -0.000000
v 0.000039 -0.000312 -0.000000
v -0.000845 -0.000467 0.000556
v -0.000831 -0.000455 0.000303
v -0.000816 -0.000451 0.000055
v -0.000262 -0.000406 0.000546
v -0.000251 -0.000397 0.000308
v -0.000246 -0.000391 0.000076
v 0.000039 0.000312 0.000000
v -0.000961 0.000312 0.000000
v -0.000869 0.000447 0.000507
v 0.000141 0.000000 0.001062
v -0.000821 -0.000298 0.001015
v -0.000859 0.000000 0.001062
v -0.000821 0.000298 0.001015
v 0.000043 0.000164 0.000558
v -0.000010 -0.000000 0.000000
v 0.000043 -0.000164 0.000558
v -0.000957 0.000164 0.000558
v -0.001010 -0.000000 0.000000
v -0.000957 -0.000164 0.000558
v -0.000287 -0.000346 0.000760
v -0.000351 -0.000205 0.001049
v -0.000432 0.000000 0.001159
v -0.000280 -0.000095 -0.000500
v -0.000271 -0.000176 -0.000407
v -0.000823 -0.000187 -0.000414
v -0.000825 -0.000117 -0.000498
v -0.000813 -0.000309 -0.000329
v -0.000807 -0.000428 -0.000173
v -0.000248 -0.000366 -0.000142
v -0.000258 -0.000286 -0.000310
v -0.000904 -0.000118 -0.000762
v -0.000616 -0.000066 -0.000991
v -0.000746 0.000000 -0.001342
v -0.000517 0.000000 -0.000977
v -0.000357 0.000000 -0.000811
v -0.000372 -0.000043 -0.000788
v -0.000002 0.000000 -0.000641
v -0.000064 -0.000055 -0.000618
v -0.000502 -0.000096 -0.000679
v -0.000314 -0.000285 0.000945
v -0.000845 0.000467 0.000556
v -0.000831 0.000455 0.000303
v -0.000816 0.000451 0.000055
v -0.000262 0.000406 0.000546
v -0.000287 0.000346 0.000760
v -0.000246 0.000391 0.000076
v -0.000251 0.000397 0.000308
v -0.000314 0.000285 0.000945
v -0.000351 0.000205 0.001049
v -0.000807 0.000428 -0.000173
v -0.000248 0.000366 -0.000142
v -0.000280 0.000095 -0.000500
v -0.000271 0.000176 -0.000407
v -0.000823 0.000187 -0.000414
v -0.000825 0.000117 -0.000498
v -0.000813 0.000309 -0.000329
v -0.000258 0.000286 -0.000310
v -0.000904 0.000118 -0.000762
v -0.000502 0.000096 -0.000679
v -0.000616 0.000066 -0.000991
v -0.000372 0.000045 -0.000788
v -0.000064 0.000055 -0.000618
v -0.000809 -0.000087 -0.001014
v -0.000687 -0.000064 -0.001134
v -0.000803 0.000087 -0.001014
v -0.000701 0.000064 -0.001144
v -0.000612 0.000000 -0.001129
v 0.000070 -0.000356 0.000171
v 0.000084 -0.000362 0.000302
v 0.000069 -0.000356 0.000166
v 0.000064 -0.000355 0.000069
v 0.000093 -0.000364 0.000396
v 0.000104 -0.000362 0.000523
v 0.000107 -0.000361 0.000538
v 0.000114 -0.000339 0.000610
v 0.000128 -0.000303 0.000747
v 0.000151 -0.000232 0.000947
v 0.000149 -0.000250 0.000926
v 0.000166 -0.000192 0.001032
v 0.000168 -0.000187 0.001041
v 0.000176 0.000000 0.001139
v 0.000170 -0.000026 0.001126
v 0.000058 -0.000348 -0.000000
v 0.000057 -0.000335 -0.000108
v 0.000059 -0.000330 -0.000143
v 0.000056 -0.000295 -0.000236
v 0.000051 -0.000260 -0.000311
v 0.000035 -0.000188 -0.000385
v 0.000040 -0.000208 -0.000368
v 0.000032 -0.000160 -0.000410
v 0.000029 -0.000067 -0.000446
v 0.000032 -0.000035 -0.000481
v 0.000027 -0.000125 -0.000424
v 0.000042 -0.000034 -0.000561
v 0.000049 0.000000 -0.000600
v 0.000034 -0.000035 -0.000507
v 0.000142 -0.000266 0.000881
v 0.000143 -0.000262 0.000892
v 0.000070 0.000356 0.000171
v 0.000069 0.000356 0.000166
v 0.000064 0.000355 0.000069
v 0.000084 0.000362 0.000302
v 0.000093 0.000364 0.000396
v 0.000104 0.000362 0.000523
v 0.000107 0.000361 0.000538
v 0.000114 0.000339 0.000610
v 0.000128 0.000303 0.000747
v 0.000151 0.000232 0.000947
v 0.000166 0.000192 0.001032
v 0.000168 0.000187 0.001041
v 0.000149 0.000250 0.000926
v 0.000170 0.000026 0.001126
v 0.000057 0.000335 -0.000108
v 0.000059 0.000330 -0.000143
v 0.000058 0.000348 0.000000
v 0.000056 0.000295 -0.000236
v 0.000051 0.000260 -0.000311
v 0.000040 0.000208 -0.000368
v 0.000035 0.000188 -0.000385
v 0.000032 0.000160 -0.000410
v 0.000027 0.000125 -0.000424
v 0.000029 0.000067 -0.000446
v 0.000032 0.000035 -0.000481
v 0.000034 0.000035 -0.000507
v 0.000042 0.000034 -0.000561
v 0.000142 0.000266 0.000881
v 0.000143 0.000262 0.000892
v -0.000915 -0.000119 -0.000764
v -0.000916 -0.000118 -0.000758
v -0.000877 -0.000100 -0.000950
v -0.000910 -0.000117 -0.000785
v -0.000953 -0.000117 -0.000594
v -0.000966 -0.000130 -0.000507
v -0.000964 -0.000116 -0.000522
v -0.000966 0.000130 -0.000507
v -0.000953 0.000117 -0.000594
v -0.000964 0.000116 -0.000522
v -0.000817 0.000307 0.001010
v -0.000818 0.000300 0.001018
v -0.000818 0.000296 0.001023
v -0.000812 0.000042 0.001165
v -0.000806 0.000184 0.001112
v -0.000810 0.000259 0.001063
v -0.000805 0.000241 0.001084
v -0.000805 0.000000 0.001181
v -0.000812 -0.000042 0.001165
v -0.000818 -0.000296 0.001023
v -0.000810 -0.000259 0.001063
v -0.000806 -0.000184 0.001112
v -0.000805 -0.000241 0.001084
v -0.000818 -0.000300 0.001018
v -0.000817 -0.000307 0.001010
v -0.000810 0.000342 0.000970
v -0.000845 0.000462 0.000577
v -0.000823 0.000417 0.000760
v -0.000821 0.000412 0.000778
v -0.000966 0.000160 -0.000473
v -0.000968 0.000145 -0.000492
v -0.000967 -0.000139 -0.000498
v -0.000968 -0.000145 -0.000492
v -0.000967 0.000139 -0.000498
v -0.000966 -0.000160 -0.000473
v -0.000823 -0.000417 0.000760
v -0.000845 -0.000462 0.000577
v -0.000810 -0.000342 0.000970
v -0.000821 -0.000412 0.000778
v -0.000846 0.000467 0.000557
v -0.000846 0.000467 0.000556
v -0.000856 0.000466 0.000507
v -0.000846 0.000467 0.000556
v -0.000863 0.000465 0.000447
v -0.000888 0.000455 0.000000
v -0.000883 0.000458 0.000081
v -0.000871 0.000460 0.000320
v -0.000872 0.000459 0.000302
v -0.000883 0.000459 0.000051
v -0.000887 0.000437 -0.000182
v -0.000916 0.000370 -0.000277
v -0.000950 0.000226 -0.000412
v -0.000959 0.000192 -0.000434
v -0.000921 0.000345 -0.000311
v -0.000926 0.000318 -0.000345
v -0.000877 0.000100 -0.000950
v -0.000910 0.000117 -0.000785
v -0.000915 0.000119 -0.000764
v -0.000916 0.000118 -0.000758
v -0.000846 -0.000467 0.000556
v -0.000846 -0.000467 0.000557
v -0.000856 -0.000466 0.000507
v -0.000846 -0.000467 0.000556
v -0.000872 -0.000459 0.000302
v -0.000871 -0.000460 0.000320
v -0.000863 -0.000465 0.000447
v -0.000888 -0.000455 -0.000000
v -0.000883 -0.000458 0.000081
v -0.000883 -0.000459 0.000051
v -0.000926 -0.000318 -0.000345
v -0.000921 -0.000345 -0.000311
v -0.000916 -0.000370 -0.000277
v -0.000959 -0.000192 -0.000434
v -0.000950 -0.000226 -0.000412
v -0.000887 -0.000437 -0.000182
v -0.000750 0.000000 -0.001346
v -0.000750 0.000000 -0.001346
v -0.000755 0.000014 -0.001335
v -0.000761 0.000047 -0.001304
v -0.000783 0.000067 -0.001241
v -0.000764 0.000062 -0.001288
v -0.000800 0.000073 -0.001188
v -0.000854 0.000092 -0.001020
v -0.000818 0.000079 -0.001131
v -0.000816 0.000077 -0.001140
v -0.000824 -0.000082 -0.001113
v -0.000854 -0.000092 -0.001020
v -0.000815 -0.000079 -0.001142
v -0.000783 -0.000067 -0.001241
v -0.000755 -0.000014 -0.001335
v -0.000764 -0.000062 -0.001289
v -0.000761 -0.000047 -0.001304
v -0.000764 -0.000061 -0.001290
vn -0.9643 -0.1579 -0.2124
vn -0.9877 -0.0000 -0.1567
vn -0.8243 0.4698 0.3161
vn -0.8489 0.3655 0.3818
vn -0.9215 0.1735 0.3475
vn -0.9104 -0.0000 0.4137
vn -0.9215 -0.1735 0.3475
vn -0.8489 -0.3655 0.3818
vn -0.8242 -0.4698 0.3161
vn -0.8730 0.4391 0.2124
vn -0.9472 0.3082 0.0883
vn -0.9869 0.1563 -0.0393
vn -0.9297 0.3198 0.1828
vn -0.9579 0.1608 0.2379
vn -0.9865 0.1562 0.0483
vn -0.9955 -0.0000 0.0951
vn -0.9818 -0.0000 0.1901
vn -0.9579 -0.1608 0.2379
vn -0.9963 -0.0000 -0.0860
vn -0.9869 -0.1563 -0.0393
vn -0.9865 -0.1563 0.0483
vn -0.9472 -0.3082 0.0883
vn -0.9297 -0.3198 0.1828
vn -0.8730 -0.4391 0.2124
vn -0.7990 0.5805 0.1567
vn -0.8060 0.5856 0.0860
vn -0.8903 0.4536 0.0393
vn -0.8900 0.4535 -0.0483
vn -0.9475 0.3075 -0.0883
vn -0.9643 0.1579 -0.2124
vn -0.7990 -0.5805 0.1567
vn -0.8903 -0.4536 0.0393
vn -0.9475 -0.3075 -0.0883
vn -0.8060 -0.5856 0.0860
vn -0.8900 -0.4535 -0.0483
vn -0.8551 0.1214 -0.5041
vn -0.9016 0.2033 -0.3818
vn -0.9430 0.1044 -0.3161
vn -0.9430 -0.1044 -0.3161
vn -0.8551 -0.1214 -0.5041
vn -0.9016 -0.2033 -0.3818
vn 0.0926 -0.9703 0.2234
vn 0.1140 -0.9927 -0.0405
vn 0.1077 -0.9941 -0.0082
vn 0.1162 -0.9610 0.2510
vn 0.1026 -0.9946 -0.0159
vn 0.1021 -0.9941 -0.0372
vn 0.1113 -0.9933 -0.0303
vn 0.1075 -0.9940 -0.0198
vn 0.1171 -0.9568 0.2660
vn 0.1134 -0.7541 0.6469
vn 0.0862 -0.4065 0.9096
vn 0.0655 -0.8338 0.5481
vn 0.0286 -0.4644 0.8851
vn 0.1112 -0.9882 -0.1049
vn 0.1286 -0.9873 -0.0937
vn 0.0259 -0.7600 -0.6494
vn 0.1179 -0.7543 -0.6459
vn 0.1622 -0.7788 -0.6059
vn 0.1551 -0.5505 -0.8203
vn 0.0881 -0.8480 -0.5227
vn 0.0377 -0.6144 -0.7881
vn 0.1131 -0.9868 -0.1164
vn 0.0845 -0.9082 -0.4100
vn 0.0366 -0.6792 -0.7330
vn 0.1239 -0.6189 -0.7757
vn 0.0489 -0.9984 -0.0285
vn -0.0090 -0.9999 0.0086
vn 0.1819 -0.9704 -0.1587
vn 0.0734 -0.9950 -0.0671
vn 0.6101 -0.6041 -0.5127
vn 0.5893 -0.7336 -0.3385
vn 0.5484 -0.6212 -0.5598
vn 0.3525 -0.6103 -0.7094
vn 0.2425 -0.9655 -0.0951
vn 0.1168 -0.9904 -0.0736
vn 0.1207 -0.9688 -0.2166
vn 0.1252 -0.9356 0.3301
vn 0.0937 -0.9492 0.3004
vn 0.0929 0.9703 0.2233
vn 0.1140 0.9927 -0.0405
vn 0.1077 0.9941 -0.0082
vn 0.1162 0.9610 0.2510
vn 0.1026 0.9946 -0.0159
vn 0.1021 0.9941 -0.0372
vn 0.1113 0.9933 -0.0303
vn 0.1075 0.9940 -0.0198
vn 0.1171 0.9568 0.2660
vn 0.1134 0.7541 0.6469
vn 0.0862 0.4065 0.9096
vn 0.0655 0.8338 0.5481
vn 0.0286 0.4644 0.8851
vn 0.1112 0.9882 -0.1049
vn 0.1286 0.9873 -0.0937
vn 0.0259 0.7600 -0.6494
vn 0.1179 0.7543 -0.6459
vn 0.1622 0.7788 -0.6059
vn 0.1551 0.5505 -0.8203
vn 0.0881 0.8480 -0.5227
vn 0.0377 0.6144 -0.7881
vn 0.1131 0.9868 -0.1164
vn 0.0845 0.9082 -0.4100
vn 0.0366 0.6792 -0.7330
vn 0.1239 0.6189 -0.7757
vn 0.0489 0.9984 -0.0285
vn -0.0090 0.9999 0.0086
vn 0.0810 0.9924 -0.0928
vn 0.0734 0.9950 -0.0671
vn 0.6101 0.6041 -0.5127
vn 0.5716 0.7448 -0.3444
vn 0.5516 0.6106 -0.5683
vn 0.3578 0.6009 -0.7148
vn 0.2425 0.9655 -0.0951
vn 0.1180 0.9895 -0.0838
vn 0.1196 0.9708 -0.2078
vn 0.1252 0.9356 0.3301
vn 0.0937 0.9492 0.3004
vn 0.0803 -0.9925 -0.0921
vn 0.1758 0.9719 -0.1567
vn 0.1217 0.9905 -0.0635
vn 0.1173 0.9896 -0.0829
vn 0.6683 -0.6353 -0.3870
vn 0.6549 0.6618 -0.3647
vn 0.9877 -0.0000 0.1567
vn 0.9215 -0.1735 -0.3475
vn 0.9104 -0.0000 -0.4137
vn 0.9215 0.1735 -0.3475
vn 0.9472 -0.3082 -0.0883
vn 0.9869 -0.1563 0.0393
vn 0.9297 -0.3198 -0.1828
vn 0.9579 -0.1608 -0.2379
vn 0.9865 -0.1562 -0.0483
vn 0.9955 -0.0000 -0.0951
vn 0.9818 -0.0000 -0.1901
vn 0.9579 0.1608 -0.2379
vn 0.9963 -0.0000 0.0860
vn 0.9869 0.1563 0.0393
vn 0.9865 0.1562 -0.0483
vn 0.9472 0.3082 -0.0883
vn 0.9297 0.3198 -0.1828
vn 0.8903 -0.4536 -0.0393
vn 0.8900 -0.4535 0.0483
vn 0.9475 -0.3074 0.0883
vn 0.8903 0.4537 -0.0393
vn 0.9475 0.3075 0.0883
vn 0.8900 0.4535 0.0483
vt 0.000000 0.000000
vt 0.361771 0.457471
vt 0.361768 0.457474
vt 0.361763 0.457467
vt 0.361814 0.457433
vt 0.350666 0.468734
vt 0.349784 0.469557
vt 0.348108 0.467381
vt 0.361768 0.457474
vt 0.359693 0.460036
vt 0.356921 0.462950
vt 0.339088 0.479363
vt 0.337601 0.480686
vt 0.335019 0.477114
vt 0.361814 0.457433
vt 0.335744 0.427634
vt 0.348021 0.418424
vt 0.372324 0.446197
vt 0.371468 0.447089
vt 0.362845 0.456501
vt 0.311480 0.447690
vt 0.323199 0.437683
vt 0.307492 0.421534
vt 0.297175 0.433059
vt 0.301604 0.428410
vt 0.301829 0.428152
vt 0.317987 0.409369
vt 0.307492 0.421534
vt 0.311682 0.416696
vt 0.317391 0.410198
vt 0.327552 0.397611
vt 0.317987 0.409369
vt 0.321365 0.405286
vt 0.382299 0.436477
vt 0.359285 0.410539
vt 0.367778 0.405886
vt 0.389830 0.429146
vt 0.388660 0.430656
vt 0.386301 0.433599
vt 0.385981 0.433920
vt 0.385387 0.434375
vt 0.383535 0.398179
vt 0.402406 0.416234
vt 0.400547 0.418846
vt 0.392877 0.426066
vt 0.341510 0.379349
vt 0.335900 0.387105
vt 0.337136 0.385563
vt 0.341122 0.380023
vt 0.350580 0.369634
vt 0.351746 0.367766
vt 0.341510 0.379349
vt 0.323088 0.486183
vt 0.300793 0.457171
vt 0.335202 0.483033
vt 0.325941 0.490563
vt 0.337601 0.480686
vt 0.279097 0.476579
vt 0.284905 0.471400
vt 0.305522 0.499623
vt 0.299976 0.503664
vt 0.305675 0.510493
vt 0.304958 0.510915
vt 0.303784 0.511527
vt 0.309620 0.507212
vt 0.307297 0.509297
vt 0.306100 0.510244
vt 0.316798 0.500118
vt 0.313039 0.493851
vt 0.320919 0.496403
vt 0.318884 0.498227
vt 0.309620 0.507212
vt 0.311536 0.505312
vt 0.291879 0.465146
vt 0.294162 0.436440
vt 0.297175 0.433059
vt 0.287250 0.442707
vt 0.289013 0.441245
vt 0.287250 0.442707
vt 0.278788 0.450614
vt 0.282585 0.446990
vt 0.274451 0.455476
vt 0.275514 0.454237
vt 0.278788 0.450614
vt 0.272759 0.457129
vt 0.271180 0.458801
vt 0.272759 0.457129
vt 0.266050 0.462716
vt 0.268256 0.461017
vt 0.289644 0.517344
vt 0.278913 0.494371
vt 0.290272 0.517778
vt 0.289925 0.517925
vt 0.299812 0.513566
vt 0.273449 0.521773
vt 0.267486 0.511343
vt 0.268471 0.492123
vt 0.288688 0.518483
vt 0.253177 0.529777
vt 0.256973 0.529694
vt 0.254198 0.530144
vt 0.253076 0.530154
vt 0.263066 0.520036
vt 0.259001 0.515622
vt 0.263145 0.505548
vt 0.265538 0.492375
vt 0.260080 0.470633
vt 0.264778 0.472176
vt 0.259695 0.466856
vt 0.262210 0.465618
vt 0.264856 0.463712
vt 0.269128 0.526109
vt 0.267397 0.526681
vt 0.334392 0.389299
vt 0.335900 0.387105
vt 0.333887 0.389893
vt 0.441758 0.373853
vt 0.441790 0.373801
vt 0.441797 0.373806
vt 0.441795 0.373809
vt 0.451098 0.359715
vt 0.453345 0.361296
vt 0.452562 0.362214
vt 0.447056 0.368721
vt 0.444266 0.371619
vt 0.460253 0.346200
vt 0.463937 0.348626
vt 0.462680 0.350171
vt 0.453345 0.361296
vt 0.402181 0.361790
vt 0.410837 0.349111
vt 0.440872 0.374925
vt 0.431848 0.383959
vt 0.430994 0.384853
vt 0.420323 0.336128
vt 0.429804 0.323972
vt 0.414547 0.310326
vt 0.403489 0.321148
vt 0.409850 0.315194
vt 0.410098 0.314958
vt 0.398840 0.325550
vt 0.403489 0.321148
vt 0.391799 0.332177
vt 0.392601 0.331544
vt 0.387870 0.335735
vt 0.380477 0.342259
vt 0.419763 0.398430
vt 0.419335 0.399043
vt 0.419028 0.399377
vt 0.416195 0.401865
vt 0.414738 0.403101
vt 0.390532 0.382091
vt 0.394803 0.373396
vt 0.421726 0.395251
vt 0.414738 0.403101
vt 0.411798 0.406281
vt 0.404931 0.414261
vt 0.368869 0.352374
vt 0.370355 0.351070
vt 0.362857 0.357021
vt 0.363512 0.356603
vt 0.353559 0.366519
vt 0.362857 0.357021
vt 0.438806 0.312869
vt 0.468794 0.333868
vt 0.463937 0.348626
vt 0.473301 0.336529
vt 0.466178 0.346123
vt 0.457240 0.290319
vt 0.485251 0.309972
vt 0.481457 0.315700
vt 0.452323 0.296355
vt 0.492111 0.315804
vt 0.491218 0.317044
vt 0.489235 0.319461
vt 0.493292 0.313429
vt 0.492732 0.314631
vt 0.492343 0.315367
vt 0.476019 0.323477
vt 0.482456 0.326959
vt 0.480657 0.329130
vt 0.478921 0.331247
vt 0.489235 0.319461
vt 0.487419 0.321463
vt 0.482456 0.326959
vt 0.446382 0.303605
vt 0.422366 0.301804
vt 0.423750 0.299977
vt 0.414547 0.310326
vt 0.417793 0.307164
vt 0.427823 0.295124
vt 0.431276 0.291167
vt 0.423749 0.299977
vt 0.437520 0.284851
vt 0.431276 0.291167
vt 0.434752 0.287734
vt 0.435943 0.286616
vt 0.441205 0.280177
vt 0.442804 0.277897
vt 0.437520 0.284851
vt 0.439120 0.283198
vt 0.475011 0.289337
vt 0.498472 0.299015
vt 0.499067 0.299270
vt 0.498935 0.299623
vt 0.495153 0.309361
vt 0.501834 0.282444
vt 0.504674 0.283897
vt 0.503448 0.288311
vt 0.499568 0.298006
vt 0.509631 0.262961
vt 0.509313 0.265757
vt 0.509215 0.261958
vt 0.509587 0.261838
vt 0.491452 0.277131
vt 0.485466 0.273054
vt 0.495340 0.268441
vt 0.501601 0.271359
vt 0.472300 0.279050
vt 0.472421 0.275979
vt 0.452206 0.276202
vt 0.450445 0.271579
vt 0.445531 0.273930
vt 0.446655 0.271362
vt 0.442804 0.277897
vt 0.443745 0.276659
vt 0.507141 0.276144
vt 0.430994 0.384853
vt 0.372479 0.349465
vt 0.373050 0.348934
vt 0.380477 0.342259
vt 0.370355 0.351070
vt 0.279195 0.522795
vt 0.274848 0.524220
vt 0.288688 0.518483
vt 0.258265 0.529480
vt 0.267397 0.526681
vt 0.261327 0.528673
vt 0.507336 0.275531
vt 0.509171 0.267052
vt 0.508696 0.269848
vt 0.507980 0.272816
vt 0.507141 0.276144
vt 0.258183 0.529496
s 0
usemtl blinn1SG
f 134/1/1 137/1/1 1/1/1 135/1/1 136/1/1 133/1/1
f 1/1/2 137/1/2 139/1/2 138/1/2 140/1/2 142/1/2 141/1/2
f 144/1/3 143/1/3 18/1/3
f 18/1/4 145/1/4 144/1/4
f 18/1/5 17/1/5 146/1/5 147/1/5 149/1/5 148/1/5 145/1/5
f 146/1/6 17/1/6 151/1/6 150/1/6
f 17/1/7 16/1/7 152/1/7 153/1/7 155/1/7 154/1/7 151/1/7
f 16/1/8 156/1/8 152/1/8
f 156/1/9 16/1/9 157/1/9
f 14/1/10 18/1/10 143/1/10 158/1/10 161/1/10 160/1/10 159/1/10
f 22/1/11 14/1/11 13/1/11
f 23/1/12 13/1/12 162/1/12 163/1/12
f 18/1/13 14/1/13 22/1/13
f 17/1/14 18/1/14 22/1/14
f 13/1/15 23/1/15 22/1/15
f 23/1/16 24/1/16 22/1/16
f 17/1/17 22/1/17 24/1/17
f 16/1/18 17/1/18 24/1/18
f 165/1/19 23/1/19 163/1/19 166/1/19 140/1/19 138/1/19 164/1/19
f 4/1/20 23/1/20 165/1/20 167/1/20
f 23/1/21 4/1/21 24/1/21
f 3/1/22 24/1/22 4/1/22
f 16/1/23 24/1/23 3/1/23
f 157/1/24 16/1/24 3/1/24 169/1/24 168/1/24 171/1/24 170/1/24
f 14/1/25 159/1/25 172/1/25 175/1/25 173/1/25 174/1/25
f 14/1/26 174/1/26 176/1/26
f 178/1/27 181/1/27 177/1/27 13/1/27 14/1/27 176/1/27 179/1/27 180/1/27
f 13/1/28 177/1/28 182/1/28 183/1/28
f 162/1/29 13/1/29 183/1/29 186/1/29 187/1/29 184/1/29 185/1/29
f 190/1/30 189/1/30 188/1/30 1/1/30 141/1/30 191/1/30
f 3/1/31 194/1/31 192/1/31 195/1/31 193/1/31 169/1/31
f 198/1/32 3/1/32 4/1/32 199/1/32 201/1/32 200/1/32 196/1/32 197/1/32
f 204/1/33 4/1/33 167/1/33 205/1/33 206/1/33 202/1/33 203/1/33
f 194/1/34 3/1/34 198/1/34
f 199/1/35 4/1/35 204/1/35 207/1/35
f 2/1/36 210/1/36 208/1/36 209/1/36
f 213/1/37 211/1/37 210/1/37 2/1/37 212/1/37
f 212/1/38 2/1/38 1/1/38 188/1/38 215/1/38 216/1/38 217/1/38 214/1/38
f 135/1/39 1/1/39 2/1/39 221/1/39 220/1/39 218/1/39 219/1/39
f 2/1/40 209/1/40 222/1/40
f 221/1/41 2/1/41 222/1/41 224/1/41 225/1/41 223/1/41
f 195/2/42 192/3/42 6/4/42 193/5/42
f 197/6/43 196/7/43 7/8/43 6/4/43 192/9/43 194/10/43 198/11/43
f 200/12/44 201/13/44 8/14/44 7/8/44 196/7/44
f 193/15/45 6/4/45 9/16/45 25/17/45 171/18/45 168/19/45 169/20/45
f 7/8/46 8/14/46 11/21/46 10/22/46
f 6/4/47 7/8/47 10/22/47 9/16/47
f 74/23/48 10/22/48 11/21/48 76/24/48 75/25/48 73/26/48
f 79/27/49 9/16/49 10/22/49 74/28/49 77/29/49 78/30/49
f 81/31/50 25/17/50 9/16/50 79/32/50 80/33/50
f 170/34/51 45/35/51 26/36/51 155/37/51 153/38/51 152/39/51 156/40/51 157/41/51
f 155/37/52 26/36/52 27/42/52 150/43/52 151/44/52 154/45/52
f 85/46/53 26/36/53 45/35/53 83/47/53 82/48/53 84/49/53
f 87/50/54 86/51/54 27/42/54 26/36/54 85/52/54
f 11/21/55 8/14/55 33/53/55 34/54/55
f 199/55/56 207/56/56 33/53/56 8/14/56 201/57/56
f 28/58/57 29/59/57 30/60/57 31/61/57
f 164/62/58 138/63/58 139/64/58 31/61/58 30/60/58 205/65/58 167/66/58 165/67/58
f 202/68/59 32/69/59 33/53/59 207/56/59 204/70/59 203/71/59
f 205/72/60 30/60/60 32/69/60 202/68/60 206/73/60
f 33/53/61 32/69/61 35/74/61 34/54/61
f 32/69/62 30/60/62 29/59/62 35/74/62
f 88/75/63 76/76/63 11/21/63 34/54/63 90/77/63 89/78/63
f 90/79/64 34/54/64 35/74/64 92/80/64 91/81/64
f 93/82/65 94/83/65 92/84/65 35/74/65 29/59/65 95/85/65
f 98/86/66 95/87/66 29/59/66 28/58/66 97/88/66 96/89/66
f 28/58/67 31/61/67 36/90/67 44/91/67
f 134/92/68 133/93/68 36/90/68 31/61/68 139/64/68 137/94/68
f 44/91/69 68/95/69 37/96/69 41/97/69
f 133/93/70 136/98/70 36/90/70
f 38/99/71 224/100/71 222/101/71 209/102/71 208/102/71
f 37/96/72 69/103/72 72/104/72 39/105/72
f 41/97/73 37/96/73 39/105/73 40/106/73
f 40/106/74 42/107/74 43/108/74 41/97/74
f 97/88/75 28/58/75 43/108/75 42/107/75 100/109/75 99/110/75 101/111/75
f 68/95/76 218/112/76 220/113/76 69/103/76 37/96/76
f 28/58/77 44/91/77 41/97/77 43/108/77
f 25/17/78 45/35/78 170/34/78 171/18/78
f 103/114/79 83/115/79 45/35/79 25/17/79 81/31/79 102/116/79
f 172/117/80 46/118/80 173/119/80 175/120/80
f 173/119/81 46/118/81 47/121/81 180/122/81 179/123/81 176/124/81 174/125/81
f 47/121/82 48/126/82 181/127/82 178/128/82 180/129/82
f 50/130/83 49/131/83 46/118/83 172/117/83 159/132/83 160/133/83 161/134/83
f 47/121/84 52/135/84 51/136/84 48/126/84
f 46/118/85 49/131/85 52/135/85 47/121/85
f 106/137/86 51/136/86 52/135/86 107/138/86 104/139/86 105/140/86
f 108/141/87 107/142/87 52/135/87 49/131/87 110/143/87 109/144/87
f 111/145/88 110/143/88 49/131/88 50/130/88 112/146/88
f 143/147/89 144/148/89 145/149/89 148/150/89 149/151/89 54/152/89 53/153/89 158/154/89
f 150/43/90 27/42/90 54/152/90 149/155/90 147/156/90 146/157/90
f 113/158/91 116/159/91 53/153/91 54/152/91 115/160/91 114/161/91
f 117/162/92 115/163/92 54/152/92 27/42/92 86/51/92
f 51/136/93 56/164/93 55/165/93 48/126/93
f 181/166/94 48/126/94 55/165/94 182/167/94 177/168/94
f 57/169/95 60/170/95 59/171/95 58/172/95
f 163/173/96 162/174/96 185/175/96 59/171/96 60/170/96 142/176/96 140/177/96 166/178/96
f 55/165/97 61/179/97 187/180/97 186/181/97 183/182/97 182/167/97
f 61/179/98 59/171/98 185/183/98 184/184/98 187/185/98
f 55/165/99 56/164/99 62/186/99 61/179/99
f 61/179/100 62/186/100 58/172/100 59/171/100
f 118/187/101 119/188/101 56/164/101 51/136/101 106/189/101 120/190/101
f 121/191/102 122/192/102 62/186/102 56/164/102 119/193/102
f 125/194/103 58/172/103 62/186/103 122/195/103 123/196/103 124/197/103
f 127/198/104 128/199/104 57/169/104 58/172/104 125/200/104 126/201/104
f 57/169/105 64/202/105 63/203/105 60/170/105
f 142/176/106 60/170/106 63/203/106 190/204/106 191/205/106 141/206/106
f 63/203/107 64/202/107 70/207/107 215/208/107 188/209/107 189/210/107
f 190/204/108 63/203/108 189/210/108
f 210/211/109 211/212/109 38/213/109 208/214/109
f 65/215/110 39/216/110 72/217/110 71/218/110
f 66/219/111 40/220/111 39/216/111 65/215/111
f 40/220/112 66/219/112 67/221/112 42/222/112
f 130/223/113 100/224/113 42/222/113 67/221/113 57/169/113 128/225/113 129/226/113
f 216/227/114 215/208/114 70/207/114
f 57/169/115 67/221/115 66/219/115 64/202/115
f 158/154/116 53/153/116 50/130/116 161/228/116
f 132/229/117 131/230/117 112/231/117 50/130/117 53/153/117 116/232/117
f 135/233/118 219/234/118 68/95/118 44/91/118 36/90/118 136/235/118
f 223/236/76 69/103/76 220/237/76 221/238/76
f 218/112/76 68/95/76 219/234/76
f 70/207/119 64/202/119 66/219/119 65/215/119
f 217/239/120 71/218/120 213/240/120 212/241/120 214/242/120
f 217/239/121 216/243/121 70/207/121 65/215/121 71/218/121
f 38/99/122 72/104/122 69/103/122 223/236/122 225/244/122 224/100/122
f 213/240/123 71/218/123 72/217/123 38/213/123 211/212/123
f 129/1/124 101/1/124 99/1/124 100/1/124 130/1/124
f 117/1/125 15/1/125 114/1/125 115/1/125
f 117/1/126 86/1/126 87/1/126 15/1/126
f 85/1/127 84/1/127 15/1/127 87/1/127
f 109/1/128 19/1/128 12/1/128 105/1/128 104/1/128 107/1/128 108/1/128
f 126/1/129 125/1/129 124/1/129 12/1/129 20/1/129
f 131/1/130 132/1/130 19/1/130 109/1/130 110/1/130 111/1/130 112/1/130
f 132/1/131 116/1/131 113/1/131 114/1/131 15/1/131 19/1/131
f 19/1/132 20/1/132 12/1/132
f 20/1/133 19/1/133 21/1/133
f 15/1/134 21/1/134 19/1/134
f 103/1/135 21/1/135 15/1/135 84/1/135 82/1/135 83/1/135
f 127/1/136 126/1/136 20/1/136 98/1/136 96/1/136 97/1/136 101/1/136 129/1/136 128/1/136
f 95/1/137 98/1/137 20/1/137 5/1/137 93/1/137
f 21/1/138 5/1/138 20/1/138
f 73/1/139 75/1/139 5/1/139 21/1/139 78/1/139 77/1/139 74/1/139
f 80/1/140 79/1/140 78/1/140 21/1/140 103/1/140 102/1/140 81/1/140
f 12/1/141 120/1/141 106/1/141 105/1/141
f 12/1/142 118/1/142 120/1/142
f 121/1/143 119/1/143 118/1/143 12/1/143 124/1/143 123/1/143 122/1/143
f 76/1/144 88/1/144 5/1/144 75/1/144
f 93/1/145 5/1/145 89/1/145 90/1/145 91/1/145 92/1/145 94/1/145
f 89/1/146 5/1/146 88/1/146
